<?xml version="1.0" encoding="UTF-8" standalone="no"?>
<svg
   xmlns:dc="http://purl.org/dc/elements/1.1/"
   xmlns:cc="http://creativecommons.org/ns#"
   xmlns:rdf="http://www.w3.org/1999/02/22-rdf-syntax-ns#"
   xmlns:svg="http://www.w3.org/2000/svg"
   xmlns="http://www.w3.org/2000/svg"
   xmlns:sodipodi="http://sodipodi.sourceforge.net/DTD/sodipodi-0.dtd"
   xmlns:inkscape="http://www.inkscape.org/namespaces/inkscape"
   version="1.1"
   id="Layer_1"
   x="0px"
   y="0px"
   width="557px"
   height="152px"
   viewBox="0 0 557 152"
   enable-background="new 0 0 557 152"
   xml:space="preserve"
   sodipodi:docname="label_v2.svg"
   inkscape:version="0.92.4 (5da689c313, 2019-01-14)"><metadata
   id="metadata8"><rdf:RDF><cc:Work
       rdf:about=""><dc:format>image/svg+xml</dc:format><dc:type
         rdf:resource="http://purl.org/dc/dcmitype/StillImage" /><dc:title></dc:title></cc:Work></rdf:RDF></metadata><defs
   id="defs6" /><sodipodi:namedview
   pagecolor="#ffffff"
   bordercolor="#666666"
   borderopacity="1"
   objecttolerance="10"
   gridtolerance="10"
   guidetolerance="10"
   inkscape:pageopacity="0"
   inkscape:pageshadow="2"
   inkscape:window-width="1434"
   inkscape:window-height="717"
   id="namedview4"
   showgrid="false"
   inkscape:zoom="1.2172352"
   inkscape:cx="314.01355"
   inkscape:cy="97.781074"
   inkscape:window-x="0"
   inkscape:window-y="0"
   inkscape:window-maximized="0"
   inkscape:current-layer="Layer_1" />  
<path
   style="opacity:0.572;fill:#aa0000;stroke:none;stroke-width:0.41076696"
   d="m 237.83419,149.49345 c -5.10849,-1.10263 -7.39381,-4.03613 -7.39381,-9.49089 0,-1.78987 0.16465,-3.67891 0.36588,-4.19787 1.2752,-3.28855 1.96891,-4.73536 2.60681,-5.43675 0.39832,-0.43796 0.72421,-0.93374 0.72421,-1.10173 0,-0.35395 6.31624,-5.70812 9.03688,-7.6604 6.52723,-4.68385 7.21654,-5.28647 8.09571,-7.07764 0.49901,-1.01664 0.91491,-1.96731 0.92423,-2.11257 0.0446,-0.69641 -1.31733,-0.58441 -4.11016,0.33799 -2.48448,0.82056 -3.95145,1.01947 -7.78515,1.05557 -5.03129,0.0474 -6.35222,-0.23003 -10.47456,-2.19979 -3.51863,-1.68128 -4.53522,-2.42373 -8.23654,-6.01538 -0.75667,-0.73424 -1.52356,-1.32124 -1.7042,-1.30443 -0.18064,0.0168 -1.06782,0.96608 -1.9715,2.10949 -2.04358,2.58569 -5.66968,4.80433 -10.22033,6.25335 -2.90414,0.92473 -4.20882,1.10353 -8.05236,1.10353 -2.52268,0 -4.80384,-0.17044 -5.06924,-0.37877 -0.26541,-0.20832 -1.01926,-0.50733 -1.67523,-0.66445 -1.36856,-0.32781 -4.15057,-2.16364 -5.43051,-3.58356 -2.48185,-2.75329 -4.26214,-8.36095 -4.26214,-13.425134 0,-2.404843 0.86295,-8.389389 1.60949,-11.161832 0.95231,-3.536605 1.76827,-6.447415 2.07263,-7.393806 0.18165,-0.564804 0.55567,-1.85872 0.83115,-2.875368 0.27549,-1.016649 0.73654,-2.587832 1.02457,-3.49152 0.62626,-1.964932 2.54488,-8.455563 3.09626,-10.474557 0.65272,-2.39007 1.64891,-5.881419 2.05108,-7.188422 0.20855,-0.677765 0.50423,-3.026238 0.65707,-5.218827 0.23352,-3.34996 0.16852,-4.153451 -0.40706,-5.031896 -0.88444,-1.349818 -1.79342,-1.317501 -4.737,0.168412 -1.8432,0.930445 -3.44656,2.346572 -6.86863,6.066541 -8.24369,8.961321 -10.42027,11.700871 -10.42027,13.115471 0,0.362518 -0.44707,2.067868 -0.99349,3.789667 -0.54642,1.721799 -1.21503,3.962347 -1.48581,4.978995 -0.27078,1.016648 -0.73517,2.680254 -1.03198,3.696903 -0.29681,1.016648 -0.72263,2.587831 -0.94627,3.491519 -0.22364,0.903687 -0.63352,2.474871 -0.91085,3.491519 -0.49839,1.827042 -0.91311,3.579892 -1.60355,6.777655 -0.19513,0.903687 -0.66693,2.936984 -1.04846,4.518436 -0.38153,1.581453 -0.85025,3.707172 -1.0416,4.723821 -0.19135,1.016648 -0.51937,2.680253 -0.72893,3.696903 -0.20956,1.01665 -0.61139,3.23479 -0.89294,4.92921 -0.28155,1.69441 -0.73473,3.82013 -1.00706,4.72382 l -0.49515,1.64306 h -8.1811 c -7.92585,0 -8.17938,-0.0256 -8.12538,-0.82153 0.0687,-1.01303 1.73068,-6.7202 2.2412,-7.69631 0.20518,-0.3923 0.37305,-0.95196 0.37305,-1.24369 0,-0.29174 0.43836,-1.91164 0.97413,-3.59979 0.53577,-1.688146 1.46702,-4.732964 2.06944,-6.766261 1.19388,-4.029591 3.01801,-10.076203 3.53168,-11.706858 0.17792,-0.564805 0.63816,-2.135988 1.02276,-3.491519 0.3846,-1.355531 0.86682,-3.019137 1.07161,-3.696903 0.20478,-0.677765 0.84424,-2.803484 1.42101,-4.72382 0.57676,-1.920335 1.23143,-3.93554 1.45481,-4.478233 0.67386,-1.637143 -0.17437,-1.985801 -2.19661,-0.902898 -1.80623,0.967231 -3.26886,1.490057 -7.50038,2.68106 -1.35553,0.381527 -2.73305,0.836227 -3.06115,1.010443 -0.34086,0.18099 -0.90849,1.799387 -1.32434,3.77587 -0.40028,1.902512 -0.94145,4.47576 -1.20259,5.71833 -0.6336,3.014751 -1.73226,6.686494 -2.82694,9.447641 -1.33999,3.379901 -3.79468,8.401897 -4.18287,8.557643 -0.18769,0.07531 -0.34127,0.316205 -0.34127,0.535324 0,0.765164 -4.44655,6.331041 -7.0392,8.811171 -4.56318,4.36513 -9.77733,7.51304 -14.93683,9.01773 -3.45327,1.00709 -11.80581,1.01099 -15.198377,0.007 -7.57448,-2.24137 -13.70281,-7.23875 -16.90573,-13.785904 -0.939048,-1.919523 -1.955696,-4.321844 -2.259219,-5.338492 -0.731614,-2.450533 -0.736631,-13.675611 -0.0077,-17.252213 0.952405,-4.673183 1.773559,-7.988183 2.160819,-8.723224 0.20668,-0.392297 0.37578,-1.044867 0.37578,-1.450155 0,-1.916176 4.3067,-10.924662 7.449,-15.581337 5.05962,-7.498034 11.20245,-12.489354 18.429317,-14.974637 3.26114,-1.121488 12.557,-1.549367 16.59743,-0.763963 3.28322,0.638211 7.67823,2.70872 7.38298,3.478147 -0.35793,0.932745 -1.34052,1.077102 -2.89904,0.425911 -4.52238,-1.88957 -10.74916,0.431947 -16.39522,6.112588 -2.24156,2.255294 -5.91845,6.865833 -5.91845,7.421288 0,0.11822 -0.60736,1.188973 -1.34969,2.379449 -1.96245,3.147202 -4.825267,9.288295 -5.854017,12.557583 -0.33401,1.06146 -0.78945,2.494164 -1.01209,3.183784 -0.74396,2.304384 -1.27633,5.274973 -1.91014,10.658387 -0.52248,4.437729 -0.54611,6.103405 -0.1399,9.858407 0.82898,7.662845 2.38762,11.930811 5.542597,15.177041 2.78975,2.87044 4.71541,3.67712 8.83091,3.69937 5.32288,0.0288 9.19395,-1.77947 14.56443,-6.80329 4.11525,-3.849616 7.03519,-8.042545 10.41007,-14.94849 3.08433,-6.311406 5.06562,-12.951809 5.5984,-18.76338 0.23144,-2.524451 0.17796,-2.794988 -0.66986,-3.388827 -0.50676,-0.354948 -1.25245,-0.64536 -1.65709,-0.64536 -0.40464,0 -1.05668,-0.163279 -1.44898,-0.362842 -0.3923,-0.199563 -1.21465,-0.596772 -1.82745,-0.882687 -3.74541,-1.747505 -6.60013,-6.909576 -6.54138,-11.828491 0.0459,-3.84453 1.76548,-7.396124 4.27953,-8.838991 1.64607,-0.944714 4.61323,-0.877877 6.03707,0.135989 1.23565,0.879863 2.82984,3.853272 3.3069,6.167878 0.16298,0.790726 0.6891,3.269369 1.16917,5.508096 0.48007,2.238726 0.87285,4.990641 0.87285,6.115367 v 2.044957 l 2.16359,-0.254288 c 5.04968,-0.593491 9.65186,-3.064296 11.68479,-6.273281 0.69904,-1.103446 1.73939,-3.485025 2.31188,-5.2924 1.04033,-3.284319 1.2144,-4.036589 2.59848,-11.230009 0.51899,-2.697293 0.95084,-3.950047 1.45463,-4.219665 0.39407,-0.210903 4.09426,-0.333063 8.22262,-0.271466 l 7.50612,0.111996 -0.0675,1.398981 c -0.0371,0.76944 -0.25337,1.786088 -0.48052,2.259218 -0.61099,1.272647 -2.41828,6.438934 -2.70784,7.740584 -0.15735,0.707358 -0.08,1.129609 0.20691,1.129609 0.252,0 2.05776,-1.50033 4.0128,-3.334066 7.15258,-6.708795 10.76649,-8.891296 16.63306,-10.044966 3.44286,-0.677046 3.74741,-0.677249 5.88344,-0.0039 2.38729,0.752531 5.47875,3.418237 5.47875,4.724231 0,0.379417 0.23105,0.921218 0.51346,1.204003 0.65308,0.653969 0.61093,7.676553 -0.0676,11.264798 -0.26593,1.406248 -0.67667,3.573463 -0.91277,4.816033 -0.48687,2.562375 -2.53178,10.983211 -3.49125,14.376844 -0.35131,1.24257 -0.78971,2.906176 -0.97422,3.696903 -0.18451,0.790726 -0.71035,2.824022 -1.16854,4.518436 -1.52933,5.655579 -4.82017,19.614435 -5.19422,22.032466 -0.54853,3.54599 1.44366,6.92635 4.35069,7.38226 1.45885,0.22879 4.2082,-0.37843 8.3631,-1.84706 2.52805,-0.89358 5.14758,-3.02556 6.21441,-5.05777 0.63721,-1.21381 0.78338,-4.041949 0.24097,-4.662071 -0.18773,-0.214626 -0.69606,-1.591722 -1.12961,-3.060214 -1.16325,-3.940056 -1.06934,-11.672367 0.20206,-16.636062 0.93068,-3.633483 2.89217,-9.899631 3.85746,-12.323009 1.07545,-2.699916 5.76552,-11.706858 6.09597,-11.706858 0.19377,0 0.35232,-0.197179 0.35232,-0.438175 0,-0.913002 3.49461,-5.154365 7.55283,-9.166773 3.67675,-3.635237 7.55208,-6.15866 12.36937,-8.05431 4.58872,-1.805711 14.3777,-2.275687 18.77867,-0.901578 1.29141,0.403211 2.4775,0.862602 2.63576,1.020868 0.43573,0.435734 2.53199,0.34432 2.82082,-0.123012 0.15518,-0.25109 3.36316,-0.410767 8.25247,-0.410767 8.88097,0 9.04998,0.05575 7.60336,2.507935 -1.42788,2.420393 -7.29739,21.022638 -10.74381,34.050325 -0.26895,1.016648 -0.72954,2.680254 -1.02355,3.696902 -0.76505,2.645516 -5.04403,20.330082 -6.01308,24.851409 -0.24211,1.12961 -0.69371,3.00651 -1.00355,4.17089 -0.66872,2.51298 -0.72629,4.24983 -0.14088,4.24983 1.53772,0 9.32872,-5.02646 12.61937,-8.14155 1.64267,-1.555023 1.74576,-1.595303 1.74576,-0.68206 0,0.5338 -0.18485,1.08479 -0.41077,1.22442 -0.22592,0.13963 -0.41076,0.71828 -0.41076,1.28589 0,0.5676 -0.27727,1.30928 -0.61615,1.64816 -0.33889,0.33889 -0.61615,1.13642 -0.61615,1.77231 0,0.90332 -0.29195,1.29178 -1.335,1.77633 -5.26059,2.44384 -6.90932,3.15762 -8.64046,3.74066 -1.08102,0.36409 -2.23204,0.66198 -2.55782,0.66198 -0.85562,0 -1.72215,1.56732 -2.04391,3.6969 -0.15361,1.01665 -0.44019,2.49541 -0.63685,3.28614 -0.19666,0.79072 -0.84421,3.5634 -1.43901,6.1615 -1.34665,5.88226 -1.92336,7.64872 -3.72241,11.40181 -1.81481,3.786 -5.46655,7.74332 -8.77025,9.50417 -3.9917,2.12755 -9.566,3.24561 -12.75252,2.55782 z m 2.01092,-5.22484 c 2.43933,-1.21689 5.62612,-7.7519 7.69236,-15.77436 0.32004,-1.24257 0.87836,-3.22174 1.24073,-4.39815 1.04212,-3.38318 0.63314,-3.70572 -2.37575,-1.87367 -2.97204,1.80961 -8.15306,6.54724 -9.83771,8.99579 -1.67331,2.43207 -2.45791,5.06226 -2.55153,8.55342 -0.0725,2.70403 0.0264,3.14679 0.91452,4.09267 1.16898,1.24504 2.94017,1.39067 4.91738,0.4043 z m 8.60326,-35.0594 c 1.37822,-0.44029 2.88106,-1.00133 3.33964,-1.24675 1.19667,-0.64044 2.16169,-2.27982 2.50318,-4.25243 0.16285,-0.94063 0.67379,-3.18901 1.13543,-4.996386 0.93915,-3.676894 2.47116,-9.928398 2.96957,-12.117625 0.33327,-1.463847 1.37387,-5.861399 2.0898,-8.83149 0.21784,-0.903687 0.55617,-2.382449 0.75185,-3.286136 0.33027,-1.525218 0.73197,-3.168013 1.65729,-6.777655 0.20271,-0.790726 0.8456,-3.470981 1.42865,-5.956121 0.58306,-2.48514 1.22533,-5.165394 1.42727,-5.956121 0.20195,-0.790726 0.66743,-2.7316 1.03441,-4.313053 0.36697,-1.581453 0.83066,-3.522326 1.03042,-4.313053 0.19975,-0.790726 0.58163,-2.308196 0.84861,-3.372153 0.69137,-2.755224 0.31181,-3.798574 -1.67042,-4.591703 -4.46635,-1.787082 -10.02371,0.279245 -15.74268,5.853417 -9.99638,9.743292 -16.89924,25.482609 -18.7606,42.776368 -0.38525,3.579383 -0.35274,5.116596 0.19116,9.036874 1.06843,7.700997 2.45585,10.499127 6.17915,12.462007 1.76619,0.93111 6.4851,0.87303 9.58727,-0.11799 z m -107.722,-47.472039 c 0.68953,-2.747283 -1.54939,-13.031455 -3.24007,-14.882856 -2.01492,-2.206465 -4.64361,-0.29887 -5.82189,4.224842 -0.57684,2.214665 -0.57361,2.616371 0.0362,4.494901 0.62526,1.926005 2.36975,4.76139 3.12404,5.077626 0.18284,0.07665 0.56018,0.357208 0.83855,0.623458 0.81244,0.77707 2.47084,1.438583 3.68174,1.468592 0.86742,0.0215 1.18065,-0.206745 1.3814,-1.006563 z"
   id="path833"
   inkscape:connector-curvature="0" /><path
   style="opacity:0.572;fill:#aa0000;stroke:none;stroke-width:0.41076696"
   d="m 28.249468,116.16054 c -3.187695,-0.54498 -7.247932,-1.90006 -9.036873,-3.016 -1.616502,-1.00838 -7.026843,-5.47214 -8.280421,-6.83171 -1.9119702,-2.07362 -3.5340983,-5.57631 -4.2950967,-9.274463 -0.6868286,-3.337719 -0.6882309,-3.711398 -0.026566,-7.078944 0.6838107,-3.480256 1.9451841,-6.341096 3.6709997,-8.325959 1.015085,-1.167449 7.369298,-5.512003 8.06169,-5.512003 0.707508,0 1.614127,2.147896 0.993886,2.354643 -2.337252,0.779085 -6.816253,6.095207 -7.344927,8.717691 -0.115898,0.574909 -0.387164,1.713695 -0.602814,2.530632 -1.173028,4.443735 0.217012,10.843333 3.266498,15.038603 1.980825,2.72509 4.113835,4.50359 7.226736,6.02564 4.289184,2.09719 5.580227,2.38219 10.821032,2.3888 5.612434,0.007 7.935722,-0.60416 10.945933,-2.87974 2.190183,-1.65568 5.505743,-5.65626 5.53239,-6.67542 0.0092,-0.35018 0.16376,-0.81229 0.343561,-1.02692 0.422946,-0.50486 1.094427,-2.59022 1.91723,-5.954173 0.539415,-2.205342 0.634491,-4.678631 0.52899,-13.760693 -0.140745,-12.115732 -1.423037,-35.038566 -2.000423,-35.760501 -0.21608,-0.270174 -2.725759,-0.549282 -6.215604,-0.691251 -6.672981,-0.271463 -10.28928,-1.078021 -14.21505,-3.170435 -2.699489,-1.43881 -5.556698,-4.272375 -6.676245,-6.620992 -1.346246,-2.824192 -1.575796,-3.495335 -2.033825,-5.946357 -1.130652,-6.050394 1.466012,-12.572028 6.186598,-15.537904 2.123786,-1.334345 5.945366,-2.15894 6.783167,-1.463627 1.184191,0.982792 0.58399,2.204074 -1.237813,2.518686 -3.77811,0.652453 -6.108275,2.427621 -7.756751,5.909255 -0.899006,1.89873 -1.074739,2.845592 -1.074739,5.790786 0,4.96611 1.821591,8.571244 5.875442,11.628166 3.489717,2.63152 7.60554,3.773703 14.53746,4.034293 l 5.830675,0.21919 0.192453,-0.983707 c 0.105846,-0.541039 0.408372,-3.294271 0.672277,-6.118294 0.514802,-5.508833 0.55371,-5.699855 2.300887,-11.296091 2.719889,-8.711848 7.726399,-15.9896017 13.609181,-19.7831063 6.714163,-4.3296171 15.306845,-4.5931246 18.180439,-0.5575305 1.503601,2.1116108 1.540479,7.3736608 0.0965,13.7683648 -1.5567,6.893878 -7.99903,15.439644 -15.104497,20.036147 -3.227018,2.087548 -4.136555,3.342223 -3.691045,5.09168 0.162647,0.638693 0.457911,3.194555 0.656143,5.679695 0.198232,2.485141 0.6431,7.198691 0.988601,10.474558 0.931771,8.834644 1.552292,21.025592 1.300003,25.540282 -0.207314,3.709879 -1.07188,8.15683 -1.890378,9.723289 -0.194999,0.373195 -0.671744,1.417919 -1.059438,2.321606 -0.902426,2.103505 -4.027644,6.549354 -5.961531,8.480704 -3.893319,3.88821 -9.153818,6.9458 -14.967904,8.69986 -6.375292,1.92338 -11.213971,2.29046 -17.046829,1.29325 z M 68.646604,36.201041 C 74.635795,32.052239 79.611843,25.403389 81.6551,18.819469 c 0.280447,-0.903687 0.671111,-2.067667 0.86814,-2.586621 0.197028,-0.518954 0.358234,-2.588155 0.358234,-4.598222 0,-3.2591548 -0.106027,-3.7779329 -0.97972,-4.7936598 -1.384084,-1.6090953 -3.700255,-1.485676 -6.231385,0.3320451 -1.872218,1.3445257 -2.33834,1.9619524 -4.606476,6.1017877 -2.712426,4.950758 -4.776883,13.528073 -4.986855,20.71914 -0.102938,3.525474 0.240509,3.820475 2.569566,2.207102 z"
   id="path835"
   inkscape:connector-curvature="0" /><path
   style="opacity:0.572;fill:#ffcc00;stroke:none;stroke-width:0.41076696"
   d="m 366.59558,113.3545 c -1.85343,-0.44461 -4.15109,-2.40595 -7.16472,-6.11599 l -1.50148,-1.84845 -6.27886,2.1424 c -14.11973,4.81777 -17.39495,5.39434 -32.56795,5.73326 -11.70373,0.26143 -19.04081,-0.0763 -15.60914,-0.71858 11.02825,-2.06394 20.35185,-13.10955 26.69334,-31.62342 2.9183,-8.51992 3.25441,-10.70957 3.27486,-21.33417 0.0147,-7.66623 -0.10433,-9.6367 -0.69835,-11.55539 -0.98223,-3.17263 -3.08744,-6.10256 -5.27385,-7.33989 -1.58514,-0.89708 -2.31073,-1.02692 -5.73846,-1.02692 -3.7075,0 -4.096,0.0851 -7.04536,1.54286 -3.85696,1.90639 -5.3747,3.58331 -6.49751,7.17899 -0.47739,1.52879 -3.7283,14.05518 -7.22424,27.83641 -9.62254,37.93267 -9.18181,36.44381 -10.9266,36.9112 -0.51737,0.13859 -3.21083,0.25451 -5.98546,0.2576 -3.90748,0.004 -5.09369,-0.12183 -5.26171,-0.55968 -0.29597,-0.7713 0.51925,-3.81089 4.76962,-17.78381 2.00465,-6.59022 4.32048,-14.52871 5.14629,-17.64108 1.70579,-6.42893 12.775,-51.26328 15.36718,-62.24269 0.94116,-3.98639 1.96154,-7.5908696 2.2675,-8.0099496 0.48966,-0.67071 1.26146,-0.77551 6.44371,-0.87498 3.25641,-0.0625 6.15224,0.062 6.48002,0.27854 0.60724,0.40121 0.31341,1.52862 -6.21969,23.8643296 -1.72883,5.91059 -2.34049,9.58225 -1.66578,9.99924 0.22531,0.13925 1.95838,-0.20128 3.85126,-0.75674 3.04869,-0.89462 4.23308,-1.01091 10.37424,-1.01854 l 6.93263,-0.009 2.72039,1.32226 c 3.54947,1.72523 10.07002,8.09711 11.6851,11.41868 2.25543,4.63847 2.75714,9.61391 1.73987,17.2541 -1.1087,8.32686 -3.47717,15.5536 -7.31432,22.31771 -2.40263,4.23534 -4.93277,7.48364 -11.55544,14.8354 -2.63966,2.93025 -4.74178,5.61051 -4.67139,5.95612 0.28595,1.40397 10.5137,0.0311 19.76964,-2.65377 4.57456,-1.32692 10.33244,-4.04873 11.10967,-5.25167 0.32473,-0.50259 0.99924,-3.7789 1.4989,-7.28069 1.05122,-7.36728 1.90165,-10.66312 6.51842,-25.26217 2.75578,-8.71427 6.05019,-19.86208 9.06354,-30.66973 0.36615,-1.31324 0.61545,-1.53729 1.9541,-1.75616 1.60518,-0.26246 10.6673,0.34518 11.06399,0.74186 0.12581,0.12582 -2.1902,8.69254 -5.1467,19.03715 -5.98863,20.9539 -9.24696,33.10109 -9.9379,37.04901 -0.69869,3.99222 -0.67949,11.08928 0.0339,12.52996 1.00978,2.03924 2.55986,2.86899 5.69008,3.04587 6.59994,0.37293 12.85754,-3.17363 20.00141,-11.336 13.15698,-15.03276 23.21855,-37.81869 24.26057,-54.94167 l 0.25063,-4.1183 -2.94471,-2.37921 c -3.37575,-2.72749 -4.91056,-4.80913 -5.22918,-7.09229 l -0.22299,-1.59795 1.02706,2.12403 c 1.10113,2.27722 3.78022,5.14333 5.76908,6.17181 1.12804,0.58334 1.2644,0.57479 1.76568,-0.11076 0.89361,-1.22207 0.41855,-10.03073 -0.73488,-13.62647 -0.45655,-1.42328 -1.74491,-2.56857 -2.88943,-2.56857 -1.09541,0 -3.26836,2.06055 -4.09722,3.8853 -0.7477,1.64606 -0.75414,1.64961 -0.76308,0.42135 -0.0184,-2.52707 2.87057,-5.94971 5.022,-5.94971 1.28684,0 3.45339,2.50541 4.12645,4.77185 0.33624,1.13224 0.94313,4.79515 1.34864,8.1398 0.49425,4.07659 0.94909,6.31769 1.37979,6.79864 0.39791,0.44433 3.22258,1.3636 7.42014,2.41483 8.76616,2.19539 10.83725,3.22535 12.50305,6.2178 1.1746,2.11002 1.25625,2.53047 1.23656,6.36688 -0.0269,5.24766 -0.65036,8.11886 -5.30671,24.44064 -4.56364,15.99678 -4.92388,17.73632 -4.93373,23.82448 -0.009,5.36639 0.39108,6.39641 2.9547,7.61293 1.96353,0.93176 6.83429,0.63948 10.07948,-0.60482 2.6681,-1.02303 8.83831,-4.9491 11.36381,-7.23075 l 1.67806,-1.51602 -8.2e-4,-10.32407 -8.2e-4,-10.32407 1.90399,-5.75073 c 4.55418,-13.75525 8.74351,-20.86428 16.73993,-28.40657 6.12278,-5.77506 10.38777,-7.89348 17.63356,-8.75862 4.42984,-0.52891 6.52476,-0.3878 13.34239,0.89872 4.00324,0.75544 4.71532,0.79543 5.19577,0.29181 0.63633,-0.66701 1.59515,-3.79429 5.15359,-16.8089 1.38985,-5.08324 2.9873,-10.76723 3.54989,-12.6310796 l 1.02265,-3.38883 h 6.13665 c 4.69938,0 6.13665,0.12265 6.13665,0.52368 0,0.28803 -0.84827,3.4766096 -1.88503,7.0857296 -7.79914,27.14994 -19.23269,68.13994 -20.73564,74.3386 -1.33952,5.52458 -2.32996,15.33157 -1.85907,18.40788 0.19781,1.29236 0.7079,2.43058 1.47269,3.28614 l 1.17004,1.30892 4.24354,-0.001 c 3.89595,-8.2e-4 4.46224,-0.10531 6.91352,-1.2741 1.4685,-0.70019 4.21309,-2.42222 6.09911,-3.82673 1.88602,-1.40452 3.52157,-2.46121 3.63456,-2.34822 0.40135,0.40135 -8.34571,6.57235 -11.37673,8.02621 l -3.08076,1.47771 h -6.79989 -6.79989 l -3.35526,-2.20088 -3.35526,-2.20088 -6.21624,2.33306 c -5.24729,1.9694 -6.7697,2.36781 -9.76704,2.55603 -7.00778,0.44007 -11.29829,-1.20287 -18.91962,-7.24475 -2.57887,-2.04422 -4.80913,-3.71694 -4.95613,-3.71694 -0.14699,0 -3.37234,1.93547 -7.16745,4.30104 -9.10118,5.67296 -10.12054,6.0501 -16.99315,6.28696 -6.5155,0.22456 -8.1384,-0.22754 -10.91053,-3.03938 -3.74961,-3.80334 -5.93776,-10.03181 -5.39379,-15.35319 0.63831,-6.24419 2.74355,-13.77603 7.43206,-26.58941 4.61371,-12.60895 6.73575,-19.0288 6.73575,-20.3778 0,-2.68922 -4.69453,-5.22736 -10.83142,-5.8561 -2.24915,-0.23044 -2.63464,-0.16916 -2.87491,0.45698 -0.15262,0.3977 -0.93098,3.70131 -1.72971,7.34136 -4.2411,19.32798 -7.90964,28.44614 -16.6277,41.32807 -7.64996,11.3037 -16.6327,19.16308 -24.6221,21.54292 -2.75258,0.81992 -11.02375,1.18361 -13.48589,0.59298 z m 125.6503,-1.43766 c 3.04019,-0.90284 8.48499,-3.68748 8.93958,-4.57197 0.20423,-0.39738 0.48543,-4.7891 0.62487,-9.75938 0.30325,-10.80843 0.19967,-10.3225 6.43563,-30.19137 5.59061,-17.81266 6.56471,-21.38339 6.56604,-24.0689 0.002,-3.18941 -0.73621,-3.66169 -5.6904,-3.64262 -3.6713,0.0141 -4.14413,0.11318 -6.45265,1.35159 -9.03711,4.84798 -17.15085,16.00678 -22.15348,30.4676 -2.74759,7.94229 -3.0669,9.91753 -3.35335,20.74373 l -0.26085,9.8584 1.35051,2.66999 c 1.73645,3.43301 3.03421,5.11542 4.77647,6.19219 2.79485,1.72732 5.62103,2.01882 9.21763,0.95074 z"
   id="path845"
   inkscape:connector-curvature="0" /><path
   style="opacity:0.572;fill:#d35f5f;stroke:none;stroke-width:0.41076696"
   d="m 383.67698,25.02957 c -2.01277,-0.44705 -4.58837,-2.17296 -5.17979,-3.47098 -0.74998,-1.64603 -0.57504,-5.33631 0.33781,-7.12564 1.04944,-2.05708 3.88372,-4.4643096 5.6454,-4.7947996 0.76444,-0.14341 2.40205,-0.17681 3.63915,-0.0742 6.59348,0.5467796 7.44215,8.6829796 1.40956,13.5134296 -2.16101,1.73037 -4.03553,2.35569 -5.85213,1.95221 z"
   id="path851"
   inkscape:connector-curvature="0" /><path
   style="opacity:0.572;fill:#d4aa00;stroke:none;stroke-width:0.41076696"
   d="m 365.60076,112.71147 c -0.96962,-0.44044 -2.94185,-2.14839 -4.75029,-4.11372 l -3.0923,-3.3606 -4.6288,1.65814 c -2.54585,0.91198 -4.84321,1.65815 -5.10524,1.65815 -0.26204,0 1.40164,-0.92136 3.69708,-2.04746 4.88552,-2.39676 4.5352,-1.7724 6.08322,-10.842034 1.3305,-7.795268 1.82918,-9.69884 6.57711,-25.10645 2.15819,-7.003577 5.06102,-16.707946 6.45073,-21.565266 1.38971,-4.857319 2.72036,-9.084925 2.957,-9.39468 0.34008,-0.445146 1.61512,-0.525378 6.08318,-0.382783 3.10911,0.09922 5.76753,0.295016 5.90761,0.435093 0.23433,0.234326 -1.98929,8.500073 -8.48039,31.523786 -1.36943,4.85732 -3.42867,12.43597 -4.57609,16.841446 -2.00202,7.686653 -2.08809,8.242655 -2.13247,13.775168 -0.039,4.86698 0.0666,5.93806 0.67833,6.87463 1.34265,2.05579 2.60921,2.55854 6.44579,2.55854 3.95166,0 6.23593,-0.68937 9.81864,-2.96314 2.71682,-1.72423 3.28308,-1.50196 0.70044,0.27494 -3.2109,2.20916 -7.6493,4.08297 -10.7064,4.52005 -4.7326,0.67662 -10.01601,0.52432 -11.92715,-0.34381 z"
   id="path853"
   inkscape:connector-curvature="0" /><path
   style="opacity:0.572;fill:#d4aa00;stroke:none;stroke-width:0.41076696"
   d="m 278.98789,112.73238 c -0.33403,-0.54046 0.67041,-4.2829 5.09048,-18.966551 2.60207,-8.644167 6.65422,-23.917379 10.8981,-41.076696 10.27441,-41.542644 11.22527,-45.2911926 11.57523,-45.6326882 0.50959,-0.497265 7.99411,-0.9211355 10.5738,-0.598825 l 2.32978,0.2910869 -0.26271,1.3022559 c -0.14449,0.7162408 -1.91207,7.0956784 -3.92796,14.1765284 -3.81221,13.390451 -4.58503,16.832084 -4.01028,17.859107 0.29743,0.531484 0.72258,0.504686 3.32135,-0.209347 2.25798,-0.6204 4.78566,-0.871392 10.42978,-1.035649 l 7.44951,-0.216798 2.61018,1.384119 c 3.40747,1.806908 10.12652,8.367892 11.6148,11.341549 1.83278,3.661992 2.4169,7.065742 2.16828,12.634752 -0.38254,8.568484 -2.60428,17.1104 -6.37853,24.523523 -2.47089,4.853155 -4.25497,7.360838 -9.84328,13.835623 -6.10014,7.06782 -7.4619,8.7915 -7.46693,9.4515 -0.007,0.89047 7.45612,0.34533 13.28195,-0.97019 2.67608,-0.60428 4.95291,-1.01138 5.05962,-0.90467 0.21815,0.21815 -5.6514,1.63618 -9.71983,2.34822 -1.46849,0.25701 -9.04714,0.55306 -16.84145,0.6579 l -14.17146,0.1906 3.3093,-1.18048 c 8.3108,-2.96461 14.56231,-9.59027 20.26727,-21.480284 2.80049,-5.836633 5.53452,-13.616387 6.43002,-18.296748 0.86488,-4.520338 0.86258,-21.298152 -0.003,-24.213961 -0.83261,-2.803721 -2.87261,-5.776014 -4.87429,-7.101906 -1.45757,-0.965472 -2.133,-1.111175 -5.73432,-1.236987 -3.99388,-0.139524 -4.14744,-0.110354 -7.0992,1.348482 -3.12175,1.542855 -5.1336,3.224894 -6.10228,5.101914 -0.68325,1.323931 -3.1082,10.402961 -9.88211,36.998738 -5.87984,23.085452 -7.00492,27.221252 -7.8494,28.854292 l -0.60042,1.16109 h -5.71595 c -3.14377,0 -5.81036,-0.15278 -5.92576,-0.3395 z"
   id="path855"
   inkscape:connector-curvature="0" /><path
   style="opacity:0.572;fill:#d4aa00;stroke:none;stroke-width:0.41076696"
   d="m 430.81671,112.20303 c -2.29823,-1.1376 -4.38961,-3.58885 -6.09276,-7.14111 -3.75156,-7.824683 -2.68386,-14.042006 7.12462,-41.487462 2.0185,-5.648046 4.00543,-11.519957 4.4154,-13.048692 0.89762,-3.347115 0.61053,-4.270462 -1.82992,-5.885474 -3.07797,-2.036904 -10.55573,-3.442396 -11.36325,-2.135795 -0.16837,0.272418 -0.8273,2.629194 -1.46431,5.237279 -0.8529,3.492036 -1.09995,4.146466 -0.93726,2.482755 0.12151,-1.24257 0.33467,-3.874792 0.47369,-5.849382 l 0.25275,-3.590165 -1.19015,-0.91925 c -2.34426,-1.81067 -5.59286,-5.053762 -6.15901,-6.148577 -0.96603,-1.868102 -0.64316,-2.19132 0.49357,-0.494084 1.58641,2.368671 2.63433,3.40793 4.60517,4.56712 2.51203,1.477496 2.75358,1.073319 2.70856,-4.53215 -0.0603,-7.502951 -1.32577,-11.376432 -3.71679,-11.376432 -1.57416,0 -2.55808,0.706147 -3.87304,2.779612 -0.84307,1.329399 -1.20473,1.653587 -1.20473,1.079933 0,-1.275855 2.06213,-4.145409 3.55783,-4.950896 1.31122,-0.706142 1.38424,-0.702752 2.49071,0.115637 2.16784,1.603423 2.93647,3.707872 4.03437,11.045893 0.56451,3.773003 1.2098,7.202722 1.43398,7.621598 0.41041,0.766866 1.98545,1.312277 9.93459,3.440195 8.79233,2.353631 10.96023,4.364446 11.31711,10.497084 0.26144,4.492485 -0.67023,9.113452 -5.01044,24.851401 -5.20103,18.859326 -4.95766,17.666635 -4.95922,24.304322 -10e-4,5.57656 0.0398,5.86362 0.98327,6.86842 0.54154,0.57674 1.63525,1.26335 2.43046,1.52579 1.92284,0.6346 6.81882,0.20161 9.57888,-0.84713 2.8693,-1.09025 3.02534,-0.75419 0.29411,0.6334 -3.44299,1.74919 -5.84272,2.21484 -11.43963,2.21981 -4.40531,0.004 -5.38371,-0.11876 -6.88856,-0.86365 z"
   id="path857"
   inkscape:connector-curvature="0" /><path
   style="opacity:0.572;fill:#d4aa00;stroke:none;stroke-width:0.41076696"
   d="m 478.36173,112.54058 c -3.1218,-1.12694 -6.06798,-2.94387 -11.18059,-6.89516 -2.02302,-1.56349 -3.89886,-2.84272 -4.16852,-2.84272 -0.26966,0 -2.02073,0.94184 -3.89127,2.09298 -3.67176,2.25962 -5.02909,2.5213 -1.8957,0.36547 1.05332,-0.7247 2.54507,-1.87074 3.315,-2.54675 l 1.39987,-1.2291 V 91.108155 80.731011 l 2.01599,-5.908292 c 4.75334,-13.930718 8.91256,-20.985509 16.58062,-28.123748 9.09188,-8.463681 16.94887,-10.402964 31.39972,-7.75016 2.08178,0.382161 4.04925,0.593457 4.37215,0.469547 0.74682,-0.286581 1.98259,-4.059298 5.6097,-17.12598 1.59917,-5.761007 3.27645,-11.722262 3.7273,-13.2472347 l 0.81972,-2.772677 5.42527,0.00629 c 2.9839,0.00346 5.69338,0.1759023 6.02107,0.3832063 0.50895,0.3219745 0.42899,0.964726 -0.54856,4.4094544 -22.57901,79.565091 -23.23066,82.148437 -23.24805,92.162523 -0.007,4.03758 0.0696,4.45255 1.12209,6.07649 0.62128,0.95864 1.56869,1.85329 2.10536,1.98814 1.6097,0.40445 8.03387,-0.1723 9.70732,-0.87152 2.70358,-1.12962 2.05519,-0.34656 -0.9777,1.18078 l -2.90721,1.46405 h -6.79862 -6.79862 l -3.32122,-2.22358 -3.32122,-2.22357 -2.72689,1.04341 c -8.63625,3.30457 -9.52834,3.53258 -14.43373,3.68903 -4.16019,0.13269 -5.04353,0.0353 -7.40328,-0.81659 z m 14.50196,-0.7361 c 2.50523,-0.84017 6.32619,-2.72171 7.83586,-3.85857 0.67716,-0.50995 0.80588,-1.53711 1.14327,-9.123125 0.23211,-5.218929 0.69011,-10.148371 1.1759,-12.656145 0.43763,-2.259218 2.66594,-10.115136 4.9518,-17.457595 8.908,-28.61365 8.91889,-28.814176 1.5807,-29.102475 -3.34182,-0.131291 -3.86731,-0.04144 -6.22167,1.063829 -8.60611,4.040188 -17.03321,15.031788 -22.28415,29.065563 -2.96925,7.935681 -3.49077,10.837733 -3.95819,22.025973 l -0.42253,10.113735 1.46464,2.90839 c 1.89989,3.77269 3.65144,5.72673 6.19501,6.91121 2.57973,1.20132 5.18358,1.23462 8.53936,0.10921 z"
   id="path859"
   inkscape:connector-curvature="0" /><path
   style="opacity:0.572;fill:#d4aa00;stroke:none;stroke-width:0.41076696"
   d=""
   id="path861"
   inkscape:connector-curvature="0" /><path
   style="opacity:0.572;fill:#d4aa00;stroke:none;stroke-width:0.07261403"
   d="m 388.97679,108.02941 c 0.39623,-0.30666 0.94452,-0.82681 0.94452,-0.89604 0,-0.11146 -0.245,-0.0655 -0.64592,0.12111 -0.21548,0.10031 -0.40312,0.17104 -0.41698,0.15717 -0.0139,-0.0138 0.33266,-0.29425 0.77005,-0.62309 5.92736,-4.4564 13.09472,-13.411312 18.75005,-23.426352 1.96765,-3.484515 3.96183,-7.517932 5.61857,-11.364095 1.11084,-2.578817 2.47622,-6.211799 3.3772,-8.985986 l 0.38322,-1.179978 h 0.31915 c 0.27066,0 0.31312,0.01931 0.27946,0.127075 -0.0218,0.06989 -0.23479,0.796939 -0.47325,1.615662 -2.88012,9.888549 -6.34081,17.28731 -12.27413,26.2414 -1.9011,2.868985 -3.23155,4.708081 -5.04916,6.979517 -3.41651,4.269537 -7.28314,8.112227 -10.89873,10.831267 -0.4428,0.33299 -0.83491,0.60391 -0.87137,0.60203 -0.0365,-0.002 0.0478,-0.0917 0.18732,-0.19969 z"
   id="path863"
   inkscape:connector-curvature="0" /><path
   style="opacity:0.572;fill:#d4aa00;stroke:none;stroke-width:0.07261403"
   d="m 417.92051,61.269391 c 1.12126,-3.569265 2.16202,-8.251656 2.74785,-12.362538 0.12119,-0.850362 0.14196,-0.44122 0.0363,0.716019 -0.0426,0.467464 -0.0662,0.995908 -0.0522,1.174321 l 0.0253,0.324388 0.0947,-0.217842 c 0.0521,-0.119814 0.42069,-1.491478 0.81908,-3.048144 0.39839,-1.556666 0.73871,-2.844658 0.75625,-2.862203 0.0697,-0.06969 0.0155,0.207374 -0.39967,2.04226 -0.23737,1.049129 -0.71488,3.165546 -1.06114,4.703148 -0.79844,3.545536 -2.07684,8.714884 -2.43777,9.857354 -0.0691,0.218603 -0.0978,0.235995 -0.39006,0.235995 h -0.31551 z"
   id="path865"
   inkscape:connector-curvature="0" /><path
   style="opacity:0.572;fill:#d4aa00;stroke:none;stroke-width:0.07261403"
   d="m 418.05925,38.25511 c -1.32289,-1.098317 -2.93009,-2.720681 -3.51119,-3.544299 -0.52665,-0.746457 -0.94441,-1.539117 -1.16911,-2.218286 -0.12861,-0.388707 -0.44502,-2.105221 -0.43437,-2.356398 0.004,-0.08674 1.29303,2.436647 1.29858,2.541459 0.002,0.03992 -0.12308,-0.06628 -0.27822,-0.235996 -0.28559,-0.312437 -0.51668,-0.400687 -0.51668,-0.197314 0,0.246692 0.47115,1.310148 0.78808,1.778803 0.64689,0.956594 2.59547,2.968893 4.51375,4.661353 0.83776,0.739134 0.3557,0.439559 -0.69084,-0.429322 z"
   id="path867"
   inkscape:connector-curvature="0" /><path
   style="opacity:0.572;fill:#d40000;stroke:none;stroke-width:0.41076696"
   d="m 382.74104,24.605343 c -0.7345,-0.242632 -2.02842,-1.04017 -2.87537,-1.772307 -1.47937,-1.278812 -1.53983,-1.433961 -1.53745,-3.945426 0.003,-3.642751 0.33449,-4.517018 2.53,-6.681516 2.21376,-2.182496 4.29921,-2.9181239 7.09134,-2.501425 3.62413,0.540866 5.36918,2.400272 5.36918,5.721019 0,5.610887 -5.89482,10.726591 -10.5777,9.179655 z"
   id="path873"
   inkscape:connector-curvature="0" /><path
   style="opacity:0.572;fill:#d40000;stroke:none;stroke-width:0.41076696"
   d="m 236.39607,148.93715 c -3.99354,-1.23118 -5.9262,-4.61139 -5.68316,-9.93982 0.1254,-2.74932 0.38249,-3.70917 1.7163,-6.40781 1.72158,-3.48323 3.96562,-5.6665 11.78112,-11.46208 5.00151,-3.70887 6.45337,-5.07799 7.46308,-7.03774 1.22308,-2.37387 0.63351,-2.63453 -3.43629,-1.51918 -4.20684,1.1529 -12.16562,1.29503 -15.039,0.26856 -3.44221,-1.22967 -7.48644,-3.64885 -10.09348,-6.03772 -1.45165,-1.33018 -2.88829,-2.41617 -3.19254,-2.41332 -0.30424,0.003 -1.419,0.99256 -2.47723,2.19935 -1.32979,1.51648 -2.91567,2.70919 -5.13459,3.86163 -4.42689,2.29922 -7.33469,2.97071 -12.86411,2.97071 -4.25486,0 -4.79969,-0.0925 -7.15041,-1.21443 -4.56832,-2.18026 -6.60489,-4.85223 -8.07271,-10.59138 -1.49684,-5.852579 -0.80161,-11.713102 2.90644,-24.500376 1.31771,-4.544117 3.43741,-11.836513 4.71045,-16.205324 3.27102,-11.225504 3.8539,-17.269902 1.80385,-18.705812 -1.0095,-0.707089 -2.46339,-0.374996 -5.08538,1.161595 -3.08359,1.8071 -16.00209,16.137227 -16.48625,18.287734 -0.12857,0.571049 -1.30435,4.827597 -2.61285,9.458994 -2.67242,9.458908 -6.08191,23.696099 -7.37774,30.807519 -0.47341,2.5981 -1.16629,6.06395 -1.53972,7.70188 l -0.67896,2.97806 -7.42139,-0.006 c -4.08176,-0.003 -7.67929,-0.1696 -7.99451,-0.36919 -0.68598,-0.43436 -0.48923,-1.68615 1.00622,-6.40218 0.57312,-1.80737 3.68711,-12.128556 6.91997,-22.935963 4.39834,-14.703541 5.74242,-19.701835 5.33956,-19.856425 -0.29611,-0.113627 -1.97917,0.345917 -3.74013,1.02121 -1.76097,0.675293 -4.55041,1.626495 -6.19875,2.113784 -3.51841,1.040127 -3.30056,0.671823 -5.00206,8.456549 -1.53586,7.026901 -2.8318,10.868627 -5.55423,16.465101 -5.92057,12.170874 -16.99865,21.139524 -27.6478,22.383234 -9.582838,1.11918 -16.882358,-1.2706 -23.340535,-7.64142 -2.793557,-2.75578 -3.650274,-3.93804 -5.257946,-7.255918 -1.631922,-3.36792 -1.982673,-4.541042 -2.33349,-7.804573 -0.744576,-6.926541 0.0136,-13.548655 2.744199,-23.968441 0.829345,-3.164734 4.812502,-11.481511 7.386656,-15.423238 2.485849,-3.806509 9.056548,-10.408637 12.185526,-12.243812 5.54581,-3.25267 11.72022,-4.531276 19.45796,-4.029385 5.50235,0.356899 11.44953,2.71019 10.14525,4.014468 -0.28716,0.287158 -1.16244,0.205138 -2.75668,-0.25832 -10.06638,-2.926377 -22.82732,9.991518 -29.426787,29.788738 -3.753602,11.260125 -3.861751,25.553641 -0.25299,33.436211 1.14128,2.49289 3.755907,5.54174 5.876287,6.85221 2.92646,1.80865 9.28374,1.74763 13.36972,-0.12832 3.11471,-1.43003 8.10688,-5.59538 10.96678,-9.150452 6.09688,-7.578848 11.14964,-19.425918 12.34964,-28.955814 0.45616,-3.622684 0.0181,-4.687406 -2.11891,-5.149503 -1.99141,-0.430624 -4.89288,-2.005339 -6.14597,-3.335608 -1.91842,-2.036583 -3.31439,-5.36635 -3.53347,-8.428333 -0.26731,-3.735956 0.44819,-6.108241 2.53827,-8.415805 1.42093,-1.568782 1.97389,-1.889382 3.53304,-2.048414 2.71795,-0.277228 4.39713,0.75526 5.77868,3.553179 1.21544,2.461531 3.25819,11.837198 3.25819,14.954243 0,1.729065 0.0844,1.887203 1.0067,1.887203 1.93631,0 5.38124,-0.917783 7.89913,-2.104453 4.92184,-2.319631 7.15331,-6.333732 9.3638,-16.844194 1.78656,-8.494725 1.56722,-8.010457 3.76457,-8.311637 2.455,-0.336496 9.34139,-0.33643 11.79675,1.14e-4 1.71848,0.235545 1.9047,0.366743 1.89484,1.334993 -0.006,0.590576 -0.73756,3.183628 -1.62564,5.762336 -1.4885,4.322131 -1.66617,5.37566 -0.90647,5.374974 0.15611,-1.41e-4 2.03986,-1.588502 4.18612,-3.529691 7.16072,-6.476541 10.79498,-8.62752 16.55912,-9.800734 3.75145,-0.763557 5.26876,-0.498899 8.17462,1.425864 2.86731,1.89923 3.60918,3.831911 3.60918,9.40256 0,5.669127 -1.02168,10.9511 -5.33069,27.559042 -4.61489,17.786875 -6.71073,26.99005 -6.703,29.43391 0.0129,4.05615 2.79125,6.67937 6.43778,6.07819 6.13139,-1.01084 11.19272,-3.78483 12.61324,-6.91299 1.01698,-2.23954 0.98498,-2.946643 -0.30407,-6.717123 -0.95979,-2.80737 -1.09198,-3.83568 -1.09687,-8.532061 -0.005,-4.493055 0.17508,-6.05316 1.13336,-9.83676 2.11458,-8.34902 5.70428,-17.199478 8.92214,-21.997679 0.53029,-0.790727 1.22346,-1.940409 1.54038,-2.55485 1.07962,-2.093189 7.31401,-8.767928 10.35622,-11.087719 6.73706,-5.137222 11.3518,-6.651748 20.28586,-6.657679 5.50657,-0.0037 6.41943,0.09834 8.58804,0.959515 2.2682,0.900729 2.60324,0.93049 5.13459,0.456082 2.75629,-0.516566 14.91192,-0.474136 15.43858,0.05389 0.14806,0.148447 -0.0279,0.844367 -0.39095,1.546489 -3.37291,6.522486 -13.02808,40.741564 -18.75593,66.473235 -1.11562,5.01181 -0.89514,5.63157 1.58572,4.4573 2.26744,-1.07325 7.82126,-4.83341 10.08575,-6.82844 1.95422,-1.72169 2.97585,-1.9179 2.02044,-0.38805 -0.27385,0.4385 -0.49791,1.13251 -0.49791,1.54223 0,0.40973 -0.20469,0.94965 -0.45486,1.19982 -0.25018,0.25017 -0.5808,1.07062 -0.73472,1.82322 -0.26184,1.28022 -0.5831,1.50578 -4.9878,3.50184 -2.58937,1.17341 -5.38465,2.25185 -6.21174,2.39653 -0.82708,0.14467 -1.79235,0.58191 -2.14505,0.97162 -0.35269,0.38972 -1.3949,4.08318 -2.31604,8.20769 -2.91946,13.07229 -4.4208,16.69393 -8.87998,21.42089 -3.0887,3.27419 -6.2154,5.01446 -10.72714,5.97056 -3.41247,0.72315 -5.50122,0.7156 -7.91519,-0.0286 z m 3.61239,-4.71056 c 2.68593,-1.63762 5.1995,-6.90043 7.93332,-16.61048 1.13639,-4.03627 1.56663,-6.18724 1.29242,-6.46145 -1.39258,-1.39258 -11.62949,7.4201 -13.89096,11.95836 -0.89288,1.7918 -1.15341,2.98772 -1.31219,6.02337 -0.19095,3.65048 -0.15965,3.82615 0.86424,4.85003 1.30558,1.30559 3.21837,1.39543 5.11317,0.24017 z m 9.88638,-35.34143 c 3.31228,-1.15183 3.73171,-1.8325 5.39888,-8.76146 0.71379,-2.966626 2.84247,-11.863448 4.73038,-19.770712 1.88793,-7.907264 4.75953,-19.898077 6.38135,-26.646251 l 2.94877,-12.269408 -0.80174,-1.073848 c -1.15525,-1.547318 -3.8606,-2.262716 -6.57268,-1.738062 -3.91733,0.757811 -6.58551,2.402288 -11.04707,6.808635 -7.62109,7.52678 -12.86359,17.084554 -16.13982,29.425 -2.59376,9.769849 -3.19061,17.454125 -1.89322,24.375002 1.11755,5.961604 2.98386,9.017664 6.39371,10.469634 1.59116,0.67754 7.64288,0.21029 10.60144,-0.81853 z M 140.76898,61.874665 c 1.15319,-2.530983 -1.70466,-13.974298 -3.89034,-15.57758 -1.05926,-0.777005 -1.23469,-0.794029 -2.25922,-0.219241 -1.59503,0.894857 -3.00304,3.707728 -3.25681,6.50635 -0.18445,2.034085 -0.0524,2.714865 0.89282,4.603393 1.38257,2.762306 2.34877,3.809509 4.49508,4.871933 2.28377,1.130465 3.44347,1.077118 4.01847,-0.184855 z"
   id="path875"
   inkscape:connector-curvature="0" /><path
   style="opacity:0.572;fill:#d40000;stroke:none;stroke-width:0.41076696"
   d="M 30.816894,116.28813 C 22.844669,115.41577 18.685644,113.355 11.996817,106.96291 8.8267093,103.93343 6.399081,98.095192 6.3823317,93.460545 6.3729547,90.865804 7.88674,85.560737 9.2369036,83.456685 c 1.1303084,-1.76143 4.5294294,-4.581739 7.7471044,-6.427907 1.347393,-0.773076 1.373339,-0.772776 1.957542,0.02263 0.541431,0.737183 0.477362,0.895103 -0.749341,1.847039 -5.982546,4.642525 -8.3884387,11.175757 -6.84358,18.583832 1.251041,5.999131 5.035089,10.760401 10.707294,13.472421 3.884675,1.85735 6.564926,2.46877 10.76818,2.45646 6.475795,-0.019 10.563724,-1.8204 14.195716,-6.25563 2.081689,-2.54207 3.028523,-4.59385 4.202306,-9.106384 0.828234,-3.184085 0.853241,-3.955304 0.613723,-18.92847 C 51.580129,63.134861 50.67949,47.883864 49.947967,47.152341 49.722362,46.926736 46.653452,46.504435 43.128167,46.213891 33.996798,45.461325 30.325371,44.235785 26.264512,40.584722 20.066509,35.012184 19.004288,24.826891 23.943279,18.327177 c 2.607476,-3.43144 8.254453,-5.792767 9.887661,-4.134601 0.636974,0.646707 0.62928,0.733006 -0.114495,1.284337 -0.438543,0.325075 -1.085501,0.592851 -1.437684,0.595058 -1.070274,0.0067 -4.690911,1.878976 -5.648493,2.920895 -0.49527,0.538889 -1.395038,2.060031 -1.999484,3.380315 -0.989428,2.161196 -1.080763,2.754876 -0.916138,5.954912 0.237564,4.617833 1.320733,7.13644 4.267859,9.923708 3.881434,3.670898 8.133149,5.031613 17.313925,5.541124 4.263588,0.236622 5.031895,0.187757 5.031895,-0.320016 0,-2.773889 1.490115,-13.004329 2.302439,-15.807496 3.646962,-12.584902 10.360821,-21.1229492 19.011141,-24.1765691 4.898717,-1.729279 10.68112,-1.1182944 12.883953,1.3613533 1.707821,1.9224329 1.74249,8.3350818 0.07965,14.7317528 -1.606793,6.181052 -7.810438,14.362583 -14.15986,18.674392 -1.289225,0.875496 -2.84698,2.189518 -3.461685,2.92005 -0.946653,1.125035 -1.081233,1.584028 -0.87967,3.000206 0.353901,2.486462 1.786073,17.653441 2.309525,24.458272 0.713482,9.275209 0.652204,18.973404 -0.142573,22.564806 -1.607179,7.262462 -6.565695,14.387484 -13.147356,18.891784 -6.539694,4.47558 -16.599219,7.04009 -24.306992,6.19667 z m 37.83593,-79.924851 c 2.359951,-1.572457 6.555475,-5.778578 8.566829,-8.588462 3.842605,-5.368165 5.707015,-10.600793 5.741166,-16.113076 0.02226,-3.5921409 -0.03491,-3.8484616 -1.094513,-4.9082506 -2.714192,-2.7146585 -7.109624,-0.414758 -10.378492,5.4305266 -3.003864,5.371411 -5.550344,15.432845 -5.550344,21.930045 0,3.750478 0.206073,3.921176 2.715354,2.249217 z"
   id="path877"
   inkscape:connector-curvature="0" /></svg>