<?xml version="1.0" standalone="no"?>
<!DOCTYPE svg PUBLIC "-//W3C//DTD SVG 20010904//EN"
 "http://www.w3.org/TR/2001/REC-SVG-20010904/DTD/svg10.dtd">
<svg version="1.0" xmlns="http://www.w3.org/2000/svg"
 width="1280.000000pt" height="720.000000pt" viewBox="0 0 1280.000000 720.000000"
 preserveAspectRatio="xMidYMid meet">
<metadata>
Created by potrace 1.15, written by Peter Selinger 2001-2017
</metadata>
<g transform="translate(0.000000,720.000000) scale(0.100000,-0.100000)"
fill="#AA0000" stroke="none">
<path d="M8720 4975 c-206 -51 -472 -116 -590 -145 -773 -189 -1421 -346
-1580 -385 -102 -25 -268 -65 -370 -90 -102 -25 -268 -66 -370 -90 -102 -25
-378 -92 -615 -150 -236 -58 -513 -125 -615 -150 -102 -25 -266 -65 -365 -89
-99 -24 -342 -83 -540 -131 -198 -48 -361 -89 -363 -90 -1 -1 27 -121 62 -266
36 -145 119 -489 186 -764 67 -275 122 -500 123 -501 1 -1 128 30 282 67 154
38 366 90 470 115 105 26 287 70 405 99 118 29 301 73 405 99 211 51 443 107
765 186 536 131 1412 344 1580 385 102 25 268 65 370 90 102 25 268 66 370 90
102 25 379 92 615 150 237 58 453 111 480 116 28 6 53 14 57 18 4 3 -8 69 -27
146 -296 1220 -337 1385 -349 1384 -6 -1 -180 -43 -386 -94z m430 -707 c81
-332 144 -606 141 -610 -3 -3 -285 -74 -626 -157 -341 -83 -852 -207 -1135
-276 -283 -69 -634 -155 -780 -190 -384 -94 -889 -217 -1080 -264 -184 -44
-1170 -284 -1585 -386 -148 -36 -274 -64 -281 -61 -6 2 -14 19 -17 38 -3 18
-63 265 -132 548 -69 283 -132 540 -139 572 l-14 56 112 27 c61 15 282 69 491
120 209 51 463 113 565 138 102 25 466 113 810 197 737 180 779 190 1635 398
363 89 791 193 950 232 160 39 385 94 500 122 116 28 260 63 320 78 61 15 112
25 114 24 2 -2 70 -275 151 -606z"/>
<path d="M8321 4460 c-24 -5 -46 -11 -48 -14 -2 -2 1 -22 6 -44 9 -33 15 -39
37 -39 47 0 59 -28 118 -269 31 -126 56 -240 56 -252 0 -12 -12 -31 -28 -42
-23 -17 -27 -27 -24 -50 7 -47 23 -53 78 -32 105 40 193 117 233 202 22 47 26
68 26 150 0 78 -5 105 -25 150 -68 157 -169 233 -324 244 -33 3 -81 1 -105 -4z"/>
<path d="M8060 4398 c-85 -21 -160 -44 -168 -50 -7 -6 -12 -23 -10 -37 2 -20
11 -29 38 -37 40 -13 31 14 124 -369 l46 -190 -26 -21 c-17 -14 -25 -29 -22
-44 6 -45 25 -45 198 -4 89 21 168 43 176 49 10 8 -5 80 -74 365 -48 195 -91
361 -95 368 -11 16 -8 16 -187 -30z"/>
<path d="M7616 4290 c-59 -16 -113 -33 -119 -39 -7 -7 -7 -21 -1 -43 9 -31 12
-32 67 -35 68 -3 120 -28 164 -78 26 -29 37 -35 55 -30 50 15 53 26 28 127
-13 51 -27 101 -32 111 -11 22 -31 21 -162 -13z"/>
<path d="M7286 4208 c-152 -36 -196 -55 -196 -84 0 -20 30 -44 56 -44 18 0 25
-7 30 -27 3 -16 19 -77 34 -138 41 -162 90 -370 90 -384 0 -6 -12 -22 -26 -35
-31 -26 -26 -63 9 -71 21 -6 342 66 354 79 4 3 -17 104 -46 224 -29 119 -69
283 -88 364 -20 81 -41 149 -47 151 -6 2 -83 -14 -170 -35z"/>
<path d="M6874 4105 c-15 -24 -21 -25 -104 -25 -96 0 -105 -5 -91 -56 6 -24
14 -29 62 -39 70 -14 122 -46 157 -98 15 -23 36 -43 45 -45 30 -6 67 25 67 56
-1 40 -43 197 -59 216 -20 24 -58 20 -77 -9z"/>
<path d="M7654 4075 c-13 -8 -24 -30 -28 -55 -4 -24 -17 -52 -32 -67 -21 -21
-24 -31 -19 -63 5 -32 11 -39 36 -44 18 -3 46 -23 66 -46 37 -41 69 -50 91
-28 17 17 15 38 -14 162 -36 152 -52 175 -100 141z"/>
<path d="M6564 4039 c-158 -60 -235 -224 -168 -357 45 -90 136 -132 334 -152
112 -12 152 -29 158 -69 3 -21 -32 -63 -71 -86 -15 -9 -16 -15 -6 -48 10 -36
12 -38 42 -31 79 17 185 91 227 158 56 92 44 213 -31 286 -51 50 -131 77 -269
90 -125 13 -174 33 -178 73 -3 20 5 35 27 56 33 31 38 50 21 82 -13 23 -21 23
-86 -2z"/>
<path d="M6113 3919 c-17 -18 -34 -22 -101 -23 -95 -1 -109 -10 -96 -58 7 -25
16 -34 34 -36 87 -9 147 -42 186 -103 21 -33 29 -39 59 -39 56 0 62 26 35 146
-12 55 -27 107 -32 117 -12 24 -59 22 -85 -4z"/>
<path d="M5807 3856 c-120 -49 -186 -128 -195 -233 -6 -83 15 -140 73 -191 51
-44 115 -67 240 -82 147 -18 154 -20 182 -44 24 -21 26 -26 16 -49 -7 -15 -28
-37 -48 -49 -37 -25 -40 -33 -25 -72 12 -33 39 -33 107 -1 68 31 146 104 173
161 48 103 17 220 -74 281 -59 40 -92 49 -248 69 -67 8 -133 22 -145 30 -34
22 -30 66 7 98 27 22 30 30 25 60 -4 19 -13 37 -19 39 -7 3 -38 -5 -69 -17z"/>
<path d="M7831 3806 c-6 -7 -18 -36 -26 -63 -17 -56 -84 -127 -130 -139 -25
-6 -27 -10 -21 -42 3 -19 9 -39 14 -44 10 -10 269 48 286 63 9 8 -28 188 -46
222 -11 21 -61 23 -77 3z"/>
<path d="M5100 3677 c-69 -17 -126 -31 -127 -31 -1 -1 -5 -17 -8 -35 -5 -29 8
-58 100 -222 58 -105 103 -194 101 -198 -3 -4 -33 -14 -66 -21 l-60 -13 0 -39
c0 -22 5 -41 13 -43 6 -3 47 3 89 14 l78 18 20 -34 c24 -40 25 -62 6 -69 -42
-16 -22 -74 25 -74 48 0 369 82 385 98 25 25 13 56 -26 68 -39 12 -28 -5 -257
397 -69 119 -130 216 -136 216 -7 -1 -68 -15 -137 -32z"/>
<path d="M6455 3510 c-18 -20 -18 -24 9 -138 37 -154 64 -183 116 -127 20 22
32 25 114 27 98 3 106 8 92 62 -5 19 -17 25 -67 35 -54 11 -67 19 -112 66 -29
29 -60 62 -69 74 -23 27 -60 27 -83 1z"/>
<path d="M4400 3504 c-35 -8 -68 -18 -72 -22 -11 -11 2 -73 16 -77 6 -2 23 -6
37 -9 31 -7 41 -28 70 -150 22 -97 18 -129 -20 -141 -17 -5 -19 -12 -14 -38
11 -59 20 -61 117 -28 139 46 216 121 224 216 16 190 -141 299 -358 249z"/>
<path d="M4955 3488 c-2 -7 -11 -105 -20 -218 -24 -318 -25 -320 -81 -356 -18
-12 -24 -24 -22 -42 5 -44 26 -48 139 -23 114 26 149 42 149 70 0 24 -16 37
-60 48 -32 8 -35 13 -38 49 -1 21 4 113 12 204 l14 165 -31 58 c-30 55 -53 71
-62 45z"/>
<path d="M4145 3444 c-188 -47 -204 -53 -215 -74 -16 -30 4 -60 40 -60 24 0
31 -5 37 -27 4 -16 34 -140 68 -278 l62 -250 -29 -27 c-15 -15 -28 -31 -28
-37 0 -17 31 -41 53 -41 40 0 362 83 380 98 33 29 17 67 -33 74 -28 3 -27 -2
-131 430 -28 119 -57 219 -63 221 -6 2 -69 -11 -141 -29z"/>
<path d="M5692 3328 c-7 -7 -12 -23 -12 -36 0 -33 49 -224 62 -239 17 -21 64
-15 81 10 13 20 22 22 100 22 99 0 113 8 103 59 -6 33 -10 36 -42 36 -70 0
-131 38 -186 118 -24 35 -35 42 -61 42 -18 0 -38 -5 -45 -12z"/>
</g>
</svg>
